<?xml version="1.0" ?><!DOCTYPE svg  PUBLIC '-//W3C//DTD SVG 1.1//EN'  'http://www.w3.org/Graphics/SVG/1.1/DTD/svg11.dtd'><svg enable-background="new 0 0 32 32"  id="Слой_1" version="1.1" viewBox="0 0 32 32"  xml:space="preserve" xmlns="http://www.w3.org/2000/svg" xmlns:xlink="http://www.w3.org/1999/xlink"><g id="Arrow_Drop_Up_Circle">
<circle cx="16" cy="16" r="16" fill="#fff"/>
<path clip-rule="evenodd" d="M16,32c8.836,0,16-7.164,16-16c0-8.837-7.164-16-16-16   C7.163,0,0,7.163,0,16C0,24.836,7.163,32,16,32z M16,1.969c7.72,0,14,6.312,14,14.031c0,7.72-6.28,14-14,14C8.28,30,2,23.72,2,16   C2,8.28,8.28,1.969,16,1.969z" fill="#121313" fill-rule="evenodd"/><path clip-rule="evenodd" d="M22.942,19c0.887,0.024,1.38-1.07,0.742-1.702l-6.999-6.899   c-0.386-0.382-1.043-0.382-1.429,0l-6.991,6.892C7.748,17.784,8,19,9,19H22.942z M15.998,12.517l4.559,4.494h-9.118L15.998,12.517z   " fill="#121313" fill-rule="evenodd"/></g><g/><g/><g/><g/><g/><g/></svg>